<svg width="1920" height="942" viewBox="0 0 1920 942" fill="none" xmlns="http://www.w3.org/2000/svg">
<g opacity="0.97">
<path d="M351.953 128.999L307.601 127.45L309.149 83.0977C333.617 83.9521 352.81 104.457 351.953 128.999Z" fill="#00B0FF"/>
<path d="M306.052 171.803L307.601 127.45L351.953 128.999C351.099 153.467 330.52 172.657 306.052 171.803Z" fill="#00B0FF"/>
<path d="M261.699 170.254L217.347 168.705L218.896 124.353C243.363 125.207 262.556 145.712 261.699 170.254Z" fill="#00B0FF"/>
<path d="M264.797 81.5488L309.149 83.0977L307.601 127.45C283.133 126.596 263.942 106.017 264.797 81.5488Z" fill="#00B0FF"/>
<path d="M260.15 214.606L261.699 170.254L306.052 171.803C305.197 196.271 284.618 215.461 260.15 214.606Z" fill="#00B0FF"/>
<path d="M217.347 168.705L261.699 170.254L260.15 214.606C235.683 213.752 216.492 193.173 217.347 168.705Z" fill="#00B0FF"/>
<path d="M307.601 127.45L306.052 171.803L261.699 170.254C262.556 145.712 283.133 126.596 307.601 127.45Z" fill="#00B0FF"/>
<path d="M218.896 124.353L220.444 80L264.797 81.5488C263.942 106.017 243.363 125.207 218.896 124.353Z" fill="#00B0FF"/>
<path d="M304.503 216.155L306.052 171.803L350.404 173.352C349.55 197.819 328.971 217.01 304.503 216.155Z" fill="#00B0FF"/>
</g>
<g opacity="0.86">
<path d="M573.974 89.8343L580.503 112.606L603.275 106.076C599.676 93.5265 586.574 86.2212 573.974 89.8343Z" fill="#7DCE94"/>
<path d="M567.444 67.0628L573.974 89.8342L596.745 83.3046C593.147 70.755 580.045 63.4498 567.444 67.0628Z" fill="#7DCE94"/>
<path d="M587.034 135.377L580.504 112.606L603.275 106.076C606.874 118.626 599.634 131.764 587.034 135.377Z" fill="#7DCE94"/>
<path d="M624.032 117.539L603.326 106.062L614.804 85.3556C626.198 91.6719 630.348 106.144 624.032 117.539Z" fill="#7DCE94"/>
<path d="M593.563 158.149L587.033 135.377L609.805 128.848C613.403 141.397 606.163 154.536 593.563 158.149Z" fill="#7DCE94"/>
</g>
<g opacity="0.91">
<path d="M1330.95 144.371L1315.44 106.003L1353.81 90.5015C1362.37 111.689 1352.09 135.828 1330.95 144.371Z" fill="#7DCE94"/>
<path d="M1384.82 167.237L1346.45 182.738L1330.95 144.371C1352.09 135.828 1376.25 146.049 1384.82 167.237Z" fill="#7DCE94"/>
<path d="M1407.68 113.368L1369.31 128.87L1353.81 90.5021C1374.96 81.959 1399.12 92.1807 1407.68 113.368Z" fill="#7DCE94"/>
<path d="M1384.82 167.237L1369.31 128.869L1407.68 113.368C1416.24 134.555 1405.96 158.694 1384.82 167.237Z" fill="#7DCE94"/>
</g>
<g opacity="0.9">
<path d="M1674.44 142C1675.81 102.944 1708.58 72.3816 1747.64 73.7455L1745.17 144.47L1674.44 142Z" fill="#6D3EA2"/>
<path d="M1679.38 0.551615C1718.44 1.91546 1749 34.6901 1747.64 73.7456L1676.91 71.2759L1679.38 0.551615Z" fill="#6D3EA2"/>
<path d="M1820.83 5.49109C1819.47 44.5466 1786.69 75.1095 1747.64 73.7456L1750.11 3.02134L1820.83 5.49109Z" fill="#6D3EA2"/>
<path d="M1815.89 146.939C1776.84 145.576 1746.27 112.801 1747.64 73.7455L1818.36 76.2152L1815.89 146.939Z" fill="#6D3EA2"/>
</g>
<g opacity="0.88">
<path d="M224.567 329.912L253.2 336.523L246.59 365.156C230.81 361.513 220.924 345.693 224.567 329.912Z" fill="#C94336"/>
<path d="M189.324 351.935L195.934 323.302L224.567 329.912C220.924 345.692 205.167 355.593 189.324 351.935Z" fill="#C94336"/>
<path d="M195.934 323.302L224.567 329.912L231.178 301.279C215.398 297.636 199.577 307.521 195.934 323.302Z" fill="#C94336"/>
<path d="M275.223 371.767L246.59 365.156L253.201 336.523C269.044 340.181 278.867 355.986 275.223 371.767Z" fill="#C94336"/>
<path d="M204.736 415.812L211.346 387.179L239.979 393.79C236.336 409.57 220.579 419.47 204.736 415.812Z" fill="#C94336"/>
<path d="M160.69 345.325L189.323 351.935L182.713 380.568C166.933 376.925 157.047 361.105 160.69 345.325Z" fill="#C94336"/>
<path d="M189.324 351.935L182.713 380.568L211.347 387.179C214.99 371.399 205.168 355.593 189.324 351.935Z" fill="#C94336"/>
<path d="M246.59 365.156L239.979 393.79L211.346 387.179C214.989 371.399 230.81 361.513 246.59 365.156Z" fill="#C94336"/>
</g>
<g opacity="0.82">
<path d="M522.214 240.946C544.397 258.277 576.437 254.343 593.768 232.16L553.598 200.776L522.214 240.946Z" fill="#7DCE94"/>
<path d="M482.044 209.562C499.375 187.379 531.415 183.445 553.598 200.776L522.214 240.946L482.044 209.562Z" fill="#7DCE94"/>
<path d="M490.83 281.116C513.013 298.447 545.053 294.513 562.384 272.33L522.214 240.946L490.83 281.116Z" fill="#7DCE94"/>
<path d="M450.66 249.731C467.991 227.549 500.032 223.615 522.214 240.946L490.83 281.116L450.66 249.731Z" fill="#7DCE94"/>
</g>
<g opacity="0.71">
<path d="M1278.44 386.5C1282.78 355.672 1261.29 327.161 1230.46 322.829L1222.62 378.654L1278.44 386.5Z" fill="#00B0FF"/>
<path d="M1286.29 330.675C1255.46 326.342 1233.98 297.832 1238.31 267.004L1294.14 274.849L1286.29 330.675Z" fill="#00B0FF"/>
<path d="M1230.46 322.829C1226.13 353.657 1197.62 375.141 1166.79 370.809L1174.64 314.983L1230.46 322.829Z" fill="#00B0FF"/>
<path d="M1182.49 259.158C1178.15 289.986 1199.64 318.497 1230.46 322.829L1238.31 267.004L1182.49 259.158Z" fill="#00B0FF"/>
</g>
<g opacity="0.9">
<path d="M1745.02 457.418C1759.79 443.154 1760.2 419.611 1745.94 404.841L1719.19 430.67L1745.02 457.418Z" fill="#6D3EA2"/>
<path d="M1719.19 430.67C1733.46 445.44 1733.05 468.983 1718.27 483.247L1692.45 456.5L1719.19 430.67Z" fill="#6D3EA2"/>
<path d="M1745.02 457.418C1730.25 471.681 1729.84 495.224 1744.1 509.994L1770.85 484.165L1745.02 457.418Z" fill="#6D3EA2"/>
<path d="M1770.85 484.165C1756.59 469.394 1757 445.852 1771.77 431.588L1797.6 458.335L1770.85 484.165Z" fill="#6D3EA2"/>
</g>
<g opacity="0.97">
<path d="M120.832 651.985L131.948 637.233L146.7 648.349C140.586 656.463 128.986 658.13 120.832 651.985Z" fill="#C94336"/>
<path d="M146.7 648.349L161.452 659.466L150.336 674.218C142.181 668.073 140.586 656.463 146.7 648.349Z" fill="#C94336"/>
<path d="M91.3281 629.752L106.08 640.868L94.9637 655.62C86.8091 649.475 85.2141 637.866 91.3281 629.752Z" fill="#C94336"/>
<path d="M117.196 626.116L106.08 640.868L91.3279 629.752C97.4728 621.597 109.042 619.972 117.196 626.116Z" fill="#C94336"/>
<path d="M120.832 651.985L106.08 640.868L117.196 626.116C125.351 632.261 126.977 643.83 120.832 651.985Z" fill="#C94336"/>
<path d="M124.468 677.853L113.351 692.605L98.5994 681.489C104.744 673.334 116.313 671.708 124.468 677.853Z" fill="#C94336"/>
<path d="M98.5994 681.489L83.8475 670.373L94.9639 655.621C103.118 661.766 104.744 673.334 98.5994 681.489Z" fill="#C94336"/>
<path d="M153.972 700.086L139.22 688.97L150.336 674.218C158.491 680.363 160.116 691.932 153.972 700.086Z" fill="#C94336"/>
<path d="M128.103 703.722L139.22 688.97L153.972 700.086C147.858 708.2 136.258 709.867 128.103 703.722Z" fill="#C94336"/>
<path d="M124.468 677.853L139.22 688.969L128.103 703.721C119.949 697.577 118.354 685.967 124.468 677.853Z" fill="#C94336"/>
</g>
<path d="M601.123 563.188L631.183 559.497L634.874 589.558C618.24 591.6 603.157 579.755 601.123 563.188Z" fill="#FFE197"/>
<path d="M627.492 529.437L631.183 559.498L661.243 555.807C659.209 539.24 644.058 527.403 627.492 529.437Z" fill="#FFE197"/>
<path d="M593.741 503.068L597.432 533.128L627.492 529.437C625.458 512.871 610.307 501.034 593.741 503.068Z" fill="#FFE197"/>
<path d="M601.123 563.188L597.432 533.128L567.372 536.819C569.406 553.386 584.489 565.231 601.123 563.188Z" fill="#FFE197"/>
<path d="M593.74 503.068L597.431 533.128L567.371 536.819C565.337 520.253 577.107 505.11 593.74 503.068Z" fill="#FFE197"/>
<path d="M627.492 529.437L631.183 559.498L601.123 563.188C599.089 546.622 610.859 531.48 627.492 529.437Z" fill="#FFE197"/>
<path d="M661.243 555.806L631.183 559.497L634.874 589.558C651.441 587.523 663.277 572.373 661.243 555.806Z" fill="#FFE197"/>
<path d="M668.625 615.927L664.934 585.867L634.874 589.558C636.908 606.124 651.991 617.97 668.625 615.927Z" fill="#FFE197"/>
<path d="M661.244 555.806L664.935 585.867L694.995 582.176C692.961 565.609 677.81 553.772 661.244 555.806Z" fill="#FFE197"/>
<path d="M668.625 615.927L664.934 585.867L694.994 582.176C697.028 598.743 685.192 613.893 668.625 615.927Z" fill="#FFE197"/>
<path d="M1381.37 629.466L1416.83 605.544L1440.76 641.01C1421.19 654.208 1394.56 649.032 1381.37 629.466Z" fill="#6D3EA2"/>
<path d="M1476.22 617.088L1440.76 641.011L1464.68 676.477C1484.24 663.28 1489.42 636.654 1476.22 617.088Z" fill="#6D3EA2"/>
<path d="M1487.77 557.699L1452.3 581.622L1476.22 617.088C1495.79 603.891 1500.96 577.265 1487.77 557.699Z" fill="#6D3EA2"/>
<path d="M1416.83 605.544L1452.3 581.622L1428.38 546.155C1408.81 559.352 1403.6 585.919 1416.83 605.544Z" fill="#6D3EA2"/>
<path d="M1487.77 557.699L1452.3 581.622L1428.38 546.155C1447.94 532.958 1474.53 538.075 1487.77 557.699Z" fill="#6D3EA2"/>
<g opacity="0.86">
<path d="M1928.12 589.399L1919.82 558.407L1888.83 566.712C1893.4 583.792 1910.97 593.994 1928.12 589.399Z" fill="#C94336"/>
<path d="M1911.52 527.416L1919.82 558.408L1888.83 566.712C1884.25 549.632 1894.37 532.011 1911.52 527.416Z" fill="#C94336"/>
<path d="M1872.22 504.728L1880.52 535.72L1849.53 544.024C1844.95 526.944 1855.07 509.323 1872.22 504.728Z" fill="#C94336"/>
<path d="M1911.52 527.415L1903.21 496.424L1872.22 504.728C1876.8 521.808 1894.37 532.01 1911.52 527.415Z" fill="#C94336"/>
<path d="M1928.12 589.399L1959.12 581.095L1950.81 550.103C1933.66 554.698 1923.55 572.319 1928.12 589.399Z" fill="#C94336"/>
<path d="M1866.14 606.008L1897.13 597.703L1905.44 628.695C1888.29 633.29 1870.72 623.088 1866.14 606.008Z" fill="#C94336"/>
<path d="M1866.14 606.008L1857.84 575.016L1888.83 566.712C1893.4 583.792 1883.22 601.432 1866.14 606.008Z" fill="#C94336"/>
<path d="M1849.53 544.024L1857.84 575.016L1888.83 566.712C1884.25 549.632 1866.61 539.448 1849.53 544.024Z" fill="#C94336"/>
<path d="M1905.44 628.696L1936.43 620.392L1928.12 589.4C1910.98 593.995 1900.86 611.616 1905.44 628.696Z" fill="#C94336"/>
<path d="M1911.52 527.416L1942.51 519.112L1950.81 550.103C1933.66 554.698 1916.09 544.496 1911.52 527.416Z" fill="#C94336"/>
</g>
<g opacity="0.8">
<path d="M106.791 873.559L82.8503 878.213L78.1968 854.272C91.404 851.705 104.224 860.352 106.791 873.559Z" fill="#FFE197"/>
<path d="M78.1961 854.272L73.5425 830.332L97.4831 825.678C100.058 838.925 91.4033 851.705 78.1961 854.272Z" fill="#FFE197"/>
<path d="M58.9092 882.867L34.9685 887.52L30.3149 863.58C43.5222 861.012 56.3419 869.659 58.9092 882.867Z" fill="#FFE197"/>
<path d="M49.602 834.985L73.5427 830.332L78.1963 854.272C64.989 856.84 52.177 848.233 49.602 834.985Z" fill="#FFE197"/>
<path d="M39.6228 911.461L34.9692 887.52L58.9099 882.866C61.4849 896.114 52.8301 908.893 39.6228 911.461Z" fill="#FFE197"/>
<path d="M58.9096 882.867L82.8503 878.213L87.5039 902.154C74.2966 904.721 61.4846 896.114 58.9096 882.867Z" fill="#FFE197"/>
<path d="M78.196 854.272L82.8496 878.213L58.9089 882.866C56.3417 869.659 64.9887 856.839 78.196 854.272Z" fill="#FFE197"/>
<path d="M30.3152 863.579L25.6616 839.639L49.6023 834.985C52.1773 848.232 43.5225 861.012 30.3152 863.579Z" fill="#FFE197"/>
<path d="M87.5027 902.154L82.8491 878.213L106.79 873.559C109.365 886.807 100.71 899.586 87.5027 902.154Z" fill="#FFE197"/>
</g>
<g opacity="0.7">
<path d="M741.274 807.47L802.304 827.3L782.474 888.329C748.772 877.379 730.324 841.172 741.274 807.47Z" fill="#C94336"/>
<path d="M822.066 766.248L802.236 827.278L863.266 847.108C874.216 813.406 855.768 777.199 822.066 766.248Z" fill="#C94336"/>
<path d="M822.134 766.27L761.104 746.441L741.274 807.47C774.909 818.399 811.183 799.972 822.134 766.27Z" fill="#C94336"/>
<path d="M863.266 847.108L843.436 908.137L782.406 888.308C793.357 854.606 829.632 836.179 863.266 847.108Z" fill="#C94336"/>
</g>
<g opacity="0.73">
<path d="M1294.16 789.876L1301.67 742.489L1349.06 749.995C1344.91 776.163 1320.28 794.013 1294.16 789.876Z" fill="#6D3EA2"/>
<path d="M1334.05 844.769L1286.66 837.264L1294.16 789.876C1320.28 794.013 1338.19 818.601 1334.05 844.769Z" fill="#6D3EA2"/>
<path d="M1341.55 797.382L1349.06 749.995L1396.44 757.5C1392.3 783.668 1367.67 801.518 1341.55 797.382Z" fill="#6D3EA2"/>
<path d="M1381.43 852.274L1334.05 844.769L1341.55 797.382C1367.67 801.518 1385.58 826.106 1381.43 852.274Z" fill="#6D3EA2"/>
</g>
<g opacity="0.83">
<path d="M1460.44 792.5L1469.32 811.524L1450.29 820.395C1445.4 809.91 1449.96 797.389 1460.44 792.5Z" fill="#00B0FF"/>
<path d="M1450.29 820.395L1459.16 839.419L1440.14 848.29C1435.25 837.805 1439.81 825.284 1450.29 820.395Z" fill="#00B0FF"/>
<path d="M1459.16 839.419L1450.29 820.395L1469.32 811.524C1474.2 822.008 1469.69 834.51 1459.16 839.419Z" fill="#00B0FF"/>
<path d="M1440.14 848.289L1459.16 839.418L1468.03 858.442C1457.55 863.331 1445.03 858.774 1440.14 848.289Z" fill="#00B0FF"/>
<path d="M1468.03 858.442L1487.06 849.571L1495.93 868.595C1485.44 873.484 1472.92 868.926 1468.03 858.442Z" fill="#00B0FF"/>
<path d="M1487.06 849.571L1468.03 858.442L1459.16 839.418C1469.69 834.51 1482.17 839.087 1487.06 849.571Z" fill="#00B0FF"/>
</g>
</svg>
